<svg width="12" height="11" viewBox="0 0 12 11" fill="none" xmlns="http://www.w3.org/2000/svg">
<mask id="path-1-inside-1_212_1414" fill="white">
<path d="M7.34135 4.92429C7.26096 4.92429 7.18632 4.90219 7.12001 4.86663V4.86758C7.12001 4.99406 7.07085 5.11284 6.98165 5.2018C6.89245 5.291 6.77376 5.34016 6.64742 5.34016C6.56586 5.34016 6.49027 5.31751 6.42324 5.28101C6.41648 5.39672 6.37023 5.50487 6.28772 5.58747C6.19852 5.67667 6.07983 5.72583 5.95341 5.72583C5.70225 5.72583 5.49828 5.5284 5.48358 5.28093C5.40587 5.32294 5.31801 5.34496 5.22739 5.33914C4.98031 5.32294 4.78682 5.10946 4.78682 4.85302V2.72741L4.54478 3.14674C4.45259 3.30712 4.28003 3.4067 4.09423 3.4067C4.00369 3.4067 3.91426 3.38295 3.83505 3.33756C3.73641 3.28038 3.66586 3.18858 3.63651 3.07877C3.60702 2.96888 3.62228 2.85396 3.6793 2.75547C3.67938 2.75547 4.47123 1.38422 4.51954 1.29999C4.52528 1.28732 4.54164 1.25059 4.55557 1.21928C4.56886 1.18939 4.58027 1.15872 4.5912 1.12788C4.83 0.453711 5.42129 0.0349312 6.1344 0.0349312C7.06044 0.0349312 7.81383 0.85187 7.81383 1.85604L7.8139 4.45163C7.8139 4.57796 7.76482 4.69666 7.6757 4.78594C7.5865 4.87514 7.46781 4.9243 7.34133 4.9243L7.34135 4.92429ZM6.13441 0.286047C5.52165 0.286047 5.03326 0.632153 4.82789 1.21186C4.81476 1.24867 4.80107 1.28549 4.7851 1.32136C4.73877 1.42526 4.73877 1.42526 4.72571 1.44021L4.72398 1.43871C4.65933 1.56071 4.46724 1.89335 3.89674 2.88115C3.8733 2.92166 3.86708 2.9687 3.87904 3.01369C3.89115 3.05868 3.92018 3.0966 3.96037 3.1198C4.08512 3.19146 4.25597 3.14521 4.32708 3.02132L4.80367 2.19619C4.83214 2.14702 4.88972 2.12288 4.94494 2.13782C4.99984 2.15253 5.03799 2.20232 5.03799 2.25911V4.8531C5.03799 4.97549 5.13033 5.08112 5.24385 5.08859C5.30929 5.09206 5.37033 5.07011 5.41619 5.02433C5.45788 4.98264 5.48084 4.92711 5.48084 4.86772V3.17122C5.48084 3.10185 5.53708 3.0456 5.60646 3.0456C5.67584 3.0456 5.73208 3.10177 5.73208 3.17122L5.732 5.25334C5.732 5.37541 5.83134 5.47476 5.95342 5.47476C6.01273 5.47476 6.06842 5.45179 6.11019 5.4101C6.15188 5.36833 6.17484 5.31265 6.17484 5.25334V3.17122C6.17484 3.10184 6.23101 3.0456 6.30046 3.0456C6.36984 3.0456 6.42608 3.10176 6.42608 3.17122L6.426 4.84821V4.86772C6.426 4.98972 6.52535 5.08906 6.6475 5.08906C6.70673 5.08906 6.76226 5.06601 6.80427 5.02416C6.84596 4.98255 6.86892 4.92702 6.86892 4.86763V3.17113C6.86892 3.10176 6.92509 3.04551 6.99454 3.04551C7.06392 3.04551 7.12016 3.10168 7.12016 3.17113L7.12 4.45169C7.12 4.57385 7.21935 4.67319 7.34134 4.67319C7.40073 4.67319 7.45626 4.65015 7.49795 4.60854C7.5398 4.56669 7.56269 4.511 7.56269 4.45169L7.56276 1.8561C7.56276 0.990469 6.92202 0.286072 6.1344 0.286072L6.13441 0.286047Z"/>
</mask>
<path d="M7.34135 4.92429C7.26096 4.92429 7.18632 4.90219 7.12001 4.86663V4.86758C7.12001 4.99406 7.07085 5.11284 6.98165 5.2018C6.89245 5.291 6.77376 5.34016 6.64742 5.34016C6.56586 5.34016 6.49027 5.31751 6.42324 5.28101C6.41648 5.39672 6.37023 5.50487 6.28772 5.58747C6.19852 5.67667 6.07983 5.72583 5.95341 5.72583C5.70225 5.72583 5.49828 5.5284 5.48358 5.28093C5.40587 5.32294 5.31801 5.34496 5.22739 5.33914C4.98031 5.32294 4.78682 5.10946 4.78682 4.85302V2.72741L4.54478 3.14674C4.45259 3.30712 4.28003 3.4067 4.09423 3.4067C4.00369 3.4067 3.91426 3.38295 3.83505 3.33756C3.73641 3.28038 3.66586 3.18858 3.63651 3.07877C3.60702 2.96888 3.62228 2.85396 3.6793 2.75547C3.67938 2.75547 4.47123 1.38422 4.51954 1.29999C4.52528 1.28732 4.54164 1.25059 4.55557 1.21928C4.56886 1.18939 4.58027 1.15872 4.5912 1.12788C4.83 0.453711 5.42129 0.0349312 6.1344 0.0349312C7.06044 0.0349312 7.81383 0.85187 7.81383 1.85604L7.8139 4.45163C7.8139 4.57796 7.76482 4.69666 7.6757 4.78594C7.5865 4.87514 7.46781 4.9243 7.34133 4.9243L7.34135 4.92429ZM6.13441 0.286047C5.52165 0.286047 5.03326 0.632153 4.82789 1.21186C4.81476 1.24867 4.80107 1.28549 4.7851 1.32136C4.73877 1.42526 4.73877 1.42526 4.72571 1.44021L4.72398 1.43871C4.65933 1.56071 4.46724 1.89335 3.89674 2.88115C3.8733 2.92166 3.86708 2.9687 3.87904 3.01369C3.89115 3.05868 3.92018 3.0966 3.96037 3.1198C4.08512 3.19146 4.25597 3.14521 4.32708 3.02132L4.80367 2.19619C4.83214 2.14702 4.88972 2.12288 4.94494 2.13782C4.99984 2.15253 5.03799 2.20232 5.03799 2.25911V4.8531C5.03799 4.97549 5.13033 5.08112 5.24385 5.08859C5.30929 5.09206 5.37033 5.07011 5.41619 5.02433C5.45788 4.98264 5.48084 4.92711 5.48084 4.86772V3.17122C5.48084 3.10185 5.53708 3.0456 5.60646 3.0456C5.67584 3.0456 5.73208 3.10177 5.73208 3.17122L5.732 5.25334C5.732 5.37541 5.83134 5.47476 5.95342 5.47476C6.01273 5.47476 6.06842 5.45179 6.11019 5.4101C6.15188 5.36833 6.17484 5.31265 6.17484 5.25334V3.17122C6.17484 3.10184 6.23101 3.0456 6.30046 3.0456C6.36984 3.0456 6.42608 3.10176 6.42608 3.17122L6.426 4.84821V4.86772C6.426 4.98972 6.52535 5.08906 6.6475 5.08906C6.70673 5.08906 6.76226 5.06601 6.80427 5.02416C6.84596 4.98255 6.86892 4.92702 6.86892 4.86763V3.17113C6.86892 3.10176 6.92509 3.04551 6.99454 3.04551C7.06392 3.04551 7.12016 3.10168 7.12016 3.17113L7.12 4.45169C7.12 4.57385 7.21935 4.67319 7.34134 4.67319C7.40073 4.67319 7.45626 4.65015 7.49795 4.60854C7.5398 4.56669 7.56269 4.511 7.56269 4.45169L7.56276 1.8561C7.56276 0.990469 6.92202 0.286072 6.1344 0.286072L6.13441 0.286047Z" fill="#4CAF4F"/>
<path d="M7.34135 4.92429V4.47914H8.9141L7.57466 5.30341L7.34135 4.92429ZM7.12001 4.86663H6.67485V4.12283L7.33037 4.47432L7.12001 4.86663ZM6.98165 5.2018L6.66688 4.88703L6.66729 4.88662L6.98165 5.2018ZM6.42324 5.28101L5.97885 5.25503L6.01981 4.55443L6.63614 4.89007L6.42324 5.28101ZM6.28772 5.58747L6.60265 5.90208L6.60249 5.90224L6.28772 5.58747ZM5.48358 5.28093L5.27193 4.88932L5.88653 4.55714L5.92796 5.25454L5.48358 5.28093ZM5.22739 5.33914L5.19885 5.78338L5.19826 5.78334L5.22739 5.33914ZM4.78682 2.72741L4.40128 2.50488L5.23198 1.06574V2.72741H4.78682ZM4.54478 3.14674L4.15884 2.9249L4.15924 2.9242L4.54478 3.14674ZM3.83505 3.33756L3.61373 3.72381L3.61178 3.72268L3.83505 3.33756ZM3.63651 3.07877L4.06645 2.96336L4.06658 2.96386L3.63651 3.07877ZM3.6793 2.75547L3.29407 2.53241L3.42267 2.31032H3.6793V2.75547ZM4.51954 1.29999L4.92497 1.48381L4.91623 1.50309L4.9057 1.52145L4.51954 1.29999ZM4.55557 1.21928L4.14882 1.0384L4.14882 1.03839L4.55557 1.21928ZM4.5912 1.12788L5.01081 1.27651L5.01077 1.27663L4.5912 1.12788ZM7.81383 1.85604L7.36867 1.85605V1.85604H7.81383ZM7.8139 4.45163L8.25906 4.45162V4.45163H7.8139ZM7.6757 4.78594L7.99077 5.10042L7.99047 5.10071L7.6757 4.78594ZM7.34133 4.9243V5.36946H5.76858L7.10803 4.54518L7.34133 4.9243ZM6.13441 0.286047V-0.159109H6.72456L6.56244 0.40834L6.13441 0.286047ZM4.82789 1.21186L5.24749 1.36051L5.24715 1.36147L4.82789 1.21186ZM4.7851 1.32136L5.19178 1.5024L5.19167 1.50264L4.7851 1.32136ZM4.72571 1.44021L5.06094 1.7331L4.76972 2.0664L4.43475 1.77711L4.72571 1.44021ZM4.72398 1.43871L4.33065 1.23026L4.59221 0.736721L5.01495 1.10181L4.72398 1.43871ZM3.89674 2.88115L4.28222 3.10379L4.28203 3.10411L3.89674 2.88115ZM3.87904 3.01369L3.44919 3.12942L3.44882 3.12803L3.87904 3.01369ZM3.96037 3.1198L3.73865 3.50581L3.73781 3.50533L3.96037 3.1198ZM4.32708 3.02132L3.94099 2.79973L3.9416 2.79867L4.32708 3.02132ZM4.80367 2.19619L4.41819 1.97354L4.41846 1.97307L4.80367 2.19619ZM4.94494 2.13782L4.82974 2.56782L4.82864 2.56752L4.94494 2.13782ZM5.24385 5.08859L5.22033 5.53317L5.21461 5.53279L5.24385 5.08859ZM5.41619 5.02433L5.73096 5.3391L5.73068 5.33938L5.41619 5.02433ZM5.73208 3.17122H6.17723V3.17124L5.73208 3.17122ZM5.732 5.25334H5.28684V5.25332L5.732 5.25334ZM6.11019 5.4101L6.42526 5.72458L6.42466 5.72518L6.11019 5.4101ZM6.42608 3.17122H6.87123V3.17124L6.42608 3.17122ZM6.426 4.84821H5.98084V4.84819L6.426 4.84821ZM6.80427 5.02416L7.11874 5.33923L7.11845 5.33952L6.80427 5.02416ZM7.12016 3.17113H7.56532V3.17119L7.12016 3.17113ZM7.12 4.45169H6.67485L6.67485 4.45164L7.12 4.45169ZM7.49795 4.60854L7.81272 4.92331L7.81243 4.92361L7.49795 4.60854ZM7.56269 4.45169H7.11753V4.45168L7.56269 4.45169ZM7.56276 1.8561H8.00792V1.85611L7.56276 1.8561ZM6.1344 0.286072V0.731228H5.54425L5.70637 0.163779L6.1344 0.286072ZM7.34135 5.36945C7.17743 5.36945 7.0311 5.32407 6.90965 5.25895L7.33037 4.47432C7.33612 4.4774 7.33977 4.47858 7.34122 4.47897C7.34247 4.47931 7.3423 4.47914 7.34135 4.47914V5.36945ZM7.56517 4.86663V4.86758H6.67485V4.86663H7.56517ZM7.56517 4.86758C7.56517 5.11175 7.46935 5.34411 7.29601 5.51699L6.66729 4.88662C6.67047 4.88344 6.67205 4.88072 6.67297 4.8785C6.67389 4.87627 6.67485 4.87284 6.67485 4.86758H7.56517ZM7.29642 5.51658C7.12367 5.68933 6.89172 5.78532 6.64742 5.78532V4.89501C6.65253 4.89501 6.65589 4.89408 6.65817 4.89314C6.66045 4.89219 6.6634 4.89051 6.66688 4.88703L7.29642 5.51658ZM6.64742 5.78532C6.48137 5.78532 6.3332 5.73886 6.21035 5.67196L6.63614 4.89007C6.64194 4.89322 6.64561 4.89442 6.64707 4.89482C6.64832 4.89516 6.64822 4.89501 6.64742 4.89501V5.78532ZM6.86764 5.30699C6.85483 5.5261 6.76595 5.73861 6.60265 5.90208L5.97278 5.27286C5.97443 5.27121 5.97539 5.26975 5.97619 5.26791C5.97707 5.26591 5.97845 5.26183 5.97885 5.25503L6.86764 5.30699ZM6.60249 5.90224C6.42971 6.07502 6.19775 6.17099 5.95341 6.17099V5.28067C5.95859 5.28067 5.96198 5.27973 5.96426 5.27879C5.96653 5.27785 5.96947 5.27617 5.97294 5.2727L6.60249 5.90224ZM5.95341 6.17099C5.46196 6.17099 5.0676 5.78527 5.03921 5.30733L5.92796 5.25454C5.92841 5.26211 5.9315 5.26875 5.93698 5.27398C5.93966 5.27653 5.94237 5.27817 5.94473 5.27913C5.9468 5.27998 5.94943 5.28067 5.95341 5.28067V6.17099ZM5.69524 5.67255C5.55145 5.75027 5.38097 5.79508 5.19885 5.78338L5.25593 4.8949C5.25593 4.8949 5.25688 4.89499 5.25923 4.89445C5.26174 4.89386 5.2661 4.89247 5.27193 4.88932L5.69524 5.67255ZM5.19826 5.78334C4.70399 5.75093 4.34167 5.33059 4.34167 4.85302H5.23198C5.23198 4.86808 5.23744 4.87967 5.24429 4.88723C5.25097 4.89459 5.2555 4.89487 5.25652 4.89494L5.19826 5.78334ZM4.34167 4.85302V2.72741H5.23198V4.85302H4.34167ZM5.17236 2.94995L4.93032 3.36928L4.15924 2.9242L4.40128 2.50488L5.17236 2.94995ZM4.93072 3.36857C4.75871 3.66783 4.43853 3.85186 4.09423 3.85186V2.96154C4.12152 2.96154 4.14647 2.94641 4.15884 2.9249L4.93072 3.36857ZM4.09423 3.85186C3.92588 3.85186 3.76017 3.80771 3.61373 3.7238L4.05637 2.95132C4.06834 2.95818 4.08149 2.96154 4.09423 2.96154V3.85186ZM3.61178 3.72268C3.41192 3.60681 3.26645 3.41825 3.20644 3.19367L4.06658 2.96386C4.06618 2.96234 4.06507 2.95965 4.06292 2.95686C4.0608 2.95409 4.05883 2.95274 4.05832 2.95244L3.61178 3.72268ZM3.20658 3.19417C3.14634 2.96976 3.17788 2.73308 3.29407 2.53241L4.06454 2.97854C4.06517 2.97744 4.06629 2.9749 4.06676 2.9713C4.06724 2.9677 4.06684 2.96482 4.06645 2.96336L3.20658 3.19417ZM3.6793 2.31032C3.46094 2.36756 3.29749 2.5266 3.29627 2.52865C3.29587 2.52934 3.29526 2.53037 3.29507 2.5307C3.29496 2.53089 3.29477 2.53121 3.2947 2.53132C3.29466 2.53139 3.29458 2.53153 3.29456 2.53156C3.2945 2.53167 3.29452 2.53164 3.29469 2.53135C3.29499 2.53083 3.2955 2.52995 3.29624 2.52867C3.2977 2.52614 3.29989 2.52234 3.3028 2.51732C3.30859 2.50729 3.31711 2.49255 3.32798 2.47372C3.34973 2.43608 3.38084 2.38221 3.41834 2.31727C3.49334 2.18742 3.59383 2.01339 3.69582 1.83673C3.90016 1.48282 4.10966 1.11989 4.13338 1.07852L4.9057 1.52145C4.88112 1.56431 4.67053 1.92913 4.46685 2.2819C4.36484 2.45858 4.26433 2.63264 4.18932 2.76252C4.15182 2.82746 4.12068 2.88137 4.09892 2.91905C4.08804 2.93789 4.07949 2.95269 4.07365 2.96278C4.07074 2.96783 4.06848 2.97174 4.06693 2.9744C4.06617 2.97572 4.06554 2.97681 4.06508 2.97761C4.06486 2.97798 4.0646 2.97844 4.06434 2.97888C4.06425 2.97905 4.06396 2.97954 4.06362 2.98012C4.0634 2.98049 4.06278 2.98156 4.06236 2.98226C4.06112 2.98434 3.89767 3.14339 3.6793 3.20063V2.31032ZM4.11411 1.11616C4.11901 1.10535 4.13454 1.07051 4.14882 1.0384L4.96231 1.40017C4.94875 1.43067 4.93155 1.46929 4.92497 1.48381L4.11411 1.11616ZM4.14882 1.03839C4.15501 1.02448 4.16186 1.0067 4.17163 0.97913L5.01077 1.27663C4.99868 1.31073 4.98271 1.35431 4.96231 1.40018L4.14882 1.03839ZM4.17159 0.979251C4.47309 0.128065 5.23197 -0.410224 6.1344 -0.410224V0.480087C5.6106 0.480087 5.18691 0.779357 5.01081 1.27651L4.17159 0.979251ZM6.1344 -0.410224C7.33955 -0.410224 8.25898 0.640649 8.25898 1.85604H7.36867C7.36867 1.06309 6.78133 0.480087 6.1344 0.480087V-0.410224ZM8.25898 1.85602L8.25906 4.45162L7.36875 4.45165L7.36867 1.85605L8.25898 1.85602ZM8.25906 4.45163C8.25906 4.69575 8.16328 4.92758 7.99077 5.10042L7.36064 4.47146C7.36416 4.46793 7.36587 4.46494 7.36684 4.4626C7.36781 4.46026 7.36875 4.45682 7.36875 4.45163H8.25906ZM7.99047 5.10071C7.81767 5.27352 7.5857 5.36946 7.34133 5.36946V4.47914C7.34657 4.47914 7.34998 4.47819 7.35225 4.47725C7.35452 4.47631 7.35746 4.47464 7.36093 4.47117L7.99047 5.10071ZM7.10803 4.54518L7.10805 4.54517L7.57466 5.30341L7.57464 5.30342L7.10803 4.54518ZM6.13441 0.731202C5.71117 0.731202 5.39023 0.957614 5.24749 1.36051L4.40829 1.06321C4.6763 0.306692 5.33214 -0.159109 6.13441 -0.159109V0.731202ZM5.24715 1.36147C5.2331 1.40085 5.21485 1.45058 5.19178 1.5024L4.37842 1.14031C4.38729 1.12039 4.39641 1.0965 4.40863 1.06225L5.24715 1.36147ZM5.19167 1.50264C5.17129 1.54836 5.15421 1.58697 5.14114 1.61312C5.13303 1.62935 5.1199 1.65437 5.10085 1.68208C5.08156 1.71015 5.06249 1.73133 5.06094 1.7331L4.39049 1.14731C4.39154 1.14611 4.39119 1.1465 4.39067 1.14711C4.38999 1.1479 4.38826 1.14992 4.38599 1.15269C4.38092 1.15887 4.37428 1.16739 4.36712 1.17781C4.3532 1.19807 4.34541 1.21379 4.34472 1.21517C4.34421 1.21618 4.34453 1.21558 4.34604 1.21234C4.34751 1.2092 4.34958 1.20469 4.35256 1.19811C4.35864 1.18467 4.36673 1.16654 4.37853 1.14008L5.19167 1.50264ZM4.43475 1.77711L4.43302 1.77562L5.01495 1.10181L5.01668 1.1033L4.43475 1.77711ZM5.11732 1.64717C5.04765 1.77863 4.84875 2.12288 4.28222 3.10379L3.51125 2.65851C4.08574 1.66383 4.27101 1.3428 4.33065 1.23026L5.11732 1.64717ZM4.28203 3.10411C4.31765 3.04255 4.32758 2.96829 4.30926 2.89935L3.44882 3.12803C3.40658 2.96911 3.42894 2.80077 3.51144 2.65819L4.28203 3.10411ZM4.30889 2.89796C4.29057 2.82992 4.24555 2.77042 4.18293 2.73427L3.73781 3.50533C3.59481 3.42277 3.49173 3.28744 3.44919 3.12942L4.30889 2.89796ZM4.1821 2.73379C4.13142 2.70469 4.08214 2.70488 4.04811 2.71404C4.01421 2.72317 3.97074 2.74789 3.94099 2.79973L4.71316 3.24291C4.51915 3.58094 4.07577 3.69945 3.73865 3.50581L4.1821 2.73379ZM3.9416 2.79867L4.41819 1.97354L5.18914 2.41883L4.71255 3.24397L3.9416 2.79867ZM4.41846 1.97307C4.54704 1.75108 4.80949 1.63999 5.06124 1.70813L4.82864 2.56752C4.96995 2.60576 5.11724 2.54297 5.18887 2.4193L4.41846 1.97307ZM5.06014 1.70783C5.30987 1.77474 5.48315 2.00105 5.48315 2.25911H4.59284C4.59284 2.40359 4.68981 2.53033 4.82974 2.56781L5.06014 1.70783ZM5.48315 2.25911V4.8531H4.59284V2.25911H5.48315ZM5.48315 4.8531C5.48315 4.80237 5.46436 4.75626 5.43351 4.72097C5.40271 4.68573 5.34836 4.64935 5.27308 4.6444L5.21461 5.53279C4.83987 5.50813 4.59284 5.18169 4.59284 4.8531H5.48315ZM5.26736 4.64406C5.21476 4.64128 5.15052 4.66054 5.10169 4.70928L5.73068 5.33938C5.59014 5.47968 5.40382 5.54283 5.22034 5.53313L5.26736 4.64406ZM5.10141 4.70956C5.05917 4.7518 5.03569 4.80969 5.03569 4.86772H5.926C5.926 5.04453 5.85658 5.21348 5.73096 5.3391L5.10141 4.70956ZM5.03569 4.86772V3.17122H5.926V4.86772H5.03569ZM5.03569 3.17122C5.03569 2.85599 5.29123 2.60045 5.60646 2.60045V3.49076C5.78294 3.49076 5.926 3.3477 5.926 3.17122H5.03569ZM5.60646 2.60045C5.92151 2.60045 6.17723 2.85574 6.17723 3.17122H5.28692C5.28692 3.3478 5.43016 3.49076 5.60646 3.49076V2.60045ZM6.17723 3.17124L6.17715 5.25335L5.28684 5.25332L5.28692 3.1712L6.17723 3.17124ZM6.17715 5.25334C6.17715 5.12956 6.07719 5.0296 5.95342 5.0296V5.91991C5.58549 5.91991 5.28684 5.62127 5.28684 5.25334H6.17715ZM5.95342 5.0296C5.89548 5.0296 5.83788 5.05295 5.79572 5.09503L6.42466 5.72518C6.29896 5.85063 6.12997 5.91991 5.95342 5.91991V5.0296ZM5.79512 5.09563C5.75303 5.13779 5.72969 5.1954 5.72969 5.25334H6.62C6.62 5.42989 6.55072 5.59888 6.42526 5.72458L5.79512 5.09563ZM5.72969 5.25334V3.17122H6.62V5.25334H5.72969ZM5.72969 3.17122C5.72969 2.85618 5.98497 2.60045 6.30046 2.60045V3.49076C6.47704 3.49076 6.62 3.34751 6.62 3.17122H5.72969ZM6.30046 2.60045C6.61551 2.60045 6.87123 2.85573 6.87123 3.17122H5.98092C5.98092 3.3478 6.12417 3.49076 6.30046 3.49076V2.60045ZM6.87123 3.17124L6.87116 4.84823L5.98084 4.84819L5.98092 3.1712L6.87123 3.17124ZM6.87116 4.84821V4.86772H5.98084V4.84821H6.87116ZM6.87116 4.86772C6.87116 4.74365 6.77098 4.6439 6.6475 4.6439V5.53421C6.27971 5.53421 5.98084 5.23579 5.98084 4.86772H6.87116ZM6.6475 4.6439C6.58835 4.6439 6.53108 4.66796 6.49009 4.7088L7.11845 5.33952C6.99344 5.46406 6.82511 5.53421 6.6475 5.53421V4.6439ZM6.48979 4.70909C6.44721 4.7516 6.42377 4.80967 6.42377 4.86763H7.31408C7.31408 5.04437 7.2447 5.21351 7.11874 5.33923L6.48979 4.70909ZM6.42377 4.86763V3.17113H7.31408V4.86763H6.42377ZM6.42377 3.17113C6.42377 2.85608 6.67906 2.60036 6.99454 2.60036V3.49067C7.17112 3.49067 7.31408 3.34743 7.31408 3.17113H6.42377ZM6.99454 2.60036C7.30959 2.60036 7.56532 2.85564 7.56532 3.17113H6.675C6.675 3.34771 6.81825 3.49067 6.99454 3.49067V2.60036ZM7.56532 3.17119L7.56516 4.45175L6.67485 4.45164L6.675 3.17108L7.56532 3.17119ZM7.56516 4.45169C7.56516 4.32821 7.46541 4.22804 7.34134 4.22804V5.11835C6.97329 5.11835 6.67485 4.81949 6.67485 4.45169H7.56516ZM7.34134 4.22804C7.28295 4.22804 7.22534 4.25168 7.18348 4.29347L7.81243 4.92361C7.68718 5.04862 7.51851 5.11835 7.34134 5.11835V4.22804ZM7.18318 4.29377C7.14079 4.33616 7.11753 4.39401 7.11753 4.45169H8.00784C8.00784 4.628 7.9388 4.79723 7.81272 4.92331L7.18318 4.29377ZM7.11753 4.45168L7.11761 1.85608L8.00792 1.85611L8.00784 4.45171L7.11753 4.45168ZM7.11761 1.8561C7.11761 1.19575 6.63747 0.731228 6.1344 0.731228V-0.159083C7.20657 -0.159083 8.00792 0.785185 8.00792 1.8561H7.11761ZM5.70637 0.163779L5.70638 0.163753L6.56244 0.40834L6.56243 0.408366L5.70637 0.163779Z" fill="#4CAF4F" mask="url(#path-1-inside-1_212_1414)"/>
<path d="M1.88232 5.78235L1.85693 5.76868C1.8509 5.77954 1.83486 5.80876 1.81104 5.85168C1.81994 5.85615 1.8284 5.86099 1.8374 5.86438C1.85225 5.83763 1.86691 5.81012 1.88232 5.78235Z" fill="#4CAF4F" stroke="#4CAF4F" stroke-width="0.445155"/>
<mask id="path-4-inside-2_212_1414" fill="white">
<path d="M11.1161 9.2689C10.8843 9.6555 10.503 9.92012 10.0425 10.0142C9.58604 10.1072 9.10599 10.0214 8.69051 9.77232L6.46462 8.43702C6.35631 8.37205 6.27969 8.26885 6.24902 8.14629C6.21858 8.02398 6.23761 7.89694 6.3025 7.78871C6.34301 7.72106 6.3998 7.66773 6.46564 7.62832L6.46501 7.62793C6.3567 7.56296 6.28009 7.45976 6.24957 7.33736C6.2189 7.21497 6.23793 7.08785 6.3029 6.97948C6.34475 6.90986 6.40209 6.85543 6.46753 6.81681C6.37251 6.75145 6.30408 6.65651 6.27592 6.54386C6.24525 6.42139 6.26428 6.29435 6.32925 6.18612C6.39415 6.0778 6.49742 6.00127 6.61982 5.97067C6.65805 5.96108 6.69683 5.95636 6.73521 5.95636C6.81057 5.95644 6.88451 5.97555 6.95247 6.01111C6.95664 5.92309 6.98283 5.83664 7.03427 5.76246C7.17531 5.55898 7.45784 5.50266 7.67794 5.63472L9.50069 6.72807L9.26574 6.30488C9.1756 6.14332 9.1789 5.94399 9.27447 5.78463C9.32104 5.70708 9.38758 5.64266 9.4671 5.59806C9.53247 5.56187 9.60326 5.54473 9.6731 5.54473C9.8231 5.54481 9.96879 5.62394 10.0463 5.76404C10.3166 6.25102 10.8266 7.16942 10.8625 7.23354C10.8701 7.24463 10.8932 7.27766 10.9129 7.30574C10.9317 7.33241 10.952 7.35789 10.973 7.38322C11.4281 7.93492 11.483 8.6574 11.1161 9.26891L11.1161 9.2689ZM10.7792 7.5433C10.7542 7.51302 10.7297 7.48211 10.7073 7.45025C10.6394 7.35382 10.6376 7.3513 10.6325 7.32605C10.5531 7.19461 10.3593 6.84569 9.82651 5.88589C9.77979 5.80164 9.67359 5.77089 9.58904 5.81761C9.54743 5.84089 9.514 5.87338 9.48961 5.91405C9.44022 5.9964 9.43833 6.09929 9.48497 6.18283L9.94733 7.0159C9.97494 7.06561 9.96573 7.12759 9.92491 7.16708C9.88417 7.20664 9.82187 7.21357 9.77294 7.18446L7.54866 5.8501C7.44381 5.78725 7.30561 5.81187 7.2408 5.90547C7.20351 5.95927 7.19163 6.02346 7.20721 6.08615C7.22152 6.14341 7.25747 6.19171 7.30836 6.22223C7.30852 6.22231 7.3086 6.22246 7.30875 6.22254L8.76307 7.09502C8.82254 7.13073 8.84181 7.20781 8.8061 7.26736C8.77039 7.32674 8.69338 7.34617 8.63376 7.31038L6.84829 6.2393C6.79764 6.20894 6.73802 6.19997 6.68075 6.21437C6.62333 6.22868 6.57504 6.26455 6.5446 6.31544C6.51408 6.36618 6.50527 6.42572 6.51943 6.48298C6.53374 6.54025 6.56969 6.58862 6.6205 6.61914L6.96794 6.82751L8.40588 7.69024C8.46535 7.72595 8.48462 7.80304 8.44891 7.86258C8.4132 7.92197 8.33619 7.94132 8.27657 7.90561L6.82195 7.03289C6.71733 6.96997 6.5811 7.0041 6.51817 7.10888C6.48765 7.15969 6.47884 7.21923 6.493 7.2765C6.50731 7.33376 6.54326 7.38206 6.59415 7.41265L6.95079 7.6266L8.04877 8.28537C8.10824 8.32108 8.12751 8.39817 8.0918 8.45771C8.05609 8.5171 7.97908 8.5366 7.91946 8.50074L6.82148 7.84197C6.77082 7.81161 6.71143 7.80264 6.65385 7.81703C6.59659 7.83135 6.54814 7.86722 6.5177 7.91795C6.48726 7.96877 6.47837 8.02839 6.49253 8.08557C6.50684 8.14284 6.54279 8.19113 6.59368 8.22173L8.81957 9.55702C9.18078 9.77373 9.59734 9.84876 9.99206 9.76821C10.3827 9.68846 10.7053 9.4653 10.9006 9.13981C11.2161 8.61421 11.1707 8.01736 10.7793 7.54329L10.7792 7.5433Z"/>
</mask>
<path d="M11.1161 9.2689C10.8843 9.6555 10.503 9.92012 10.0425 10.0142C9.58604 10.1072 9.10599 10.0214 8.69051 9.77232L6.46462 8.43702C6.35631 8.37205 6.27969 8.26885 6.24902 8.14629C6.21858 8.02398 6.23761 7.89694 6.3025 7.78871C6.34301 7.72106 6.3998 7.66773 6.46564 7.62832L6.46501 7.62793C6.3567 7.56296 6.28009 7.45976 6.24957 7.33736C6.2189 7.21497 6.23793 7.08785 6.3029 6.97948C6.34475 6.90986 6.40209 6.85543 6.46753 6.81681C6.37251 6.75145 6.30408 6.65651 6.27592 6.54386C6.24525 6.42139 6.26428 6.29435 6.32925 6.18612C6.39415 6.0778 6.49742 6.00127 6.61982 5.97067C6.65805 5.96108 6.69683 5.95636 6.73521 5.95636C6.81057 5.95644 6.88451 5.97555 6.95247 6.01111C6.95664 5.92309 6.98283 5.83664 7.03427 5.76246C7.17531 5.55898 7.45784 5.50266 7.67794 5.63472L9.50069 6.72807L9.26574 6.30488C9.1756 6.14332 9.1789 5.94399 9.27447 5.78463C9.32104 5.70708 9.38758 5.64266 9.4671 5.59806C9.53247 5.56187 9.60326 5.54473 9.6731 5.54473C9.8231 5.54481 9.96879 5.62394 10.0463 5.76404C10.3166 6.25102 10.8266 7.16942 10.8625 7.23354C10.8701 7.24463 10.8932 7.27766 10.9129 7.30574C10.9317 7.33241 10.952 7.35789 10.973 7.38322C11.4281 7.93492 11.483 8.6574 11.1161 9.26891L11.1161 9.2689ZM10.7792 7.5433C10.7542 7.51302 10.7297 7.48211 10.7073 7.45025C10.6394 7.35382 10.6376 7.3513 10.6325 7.32605C10.5531 7.19461 10.3593 6.84569 9.82651 5.88589C9.77979 5.80164 9.67359 5.77089 9.58904 5.81761C9.54743 5.84089 9.514 5.87338 9.48961 5.91405C9.44022 5.9964 9.43833 6.09929 9.48497 6.18283L9.94733 7.0159C9.97494 7.06561 9.96573 7.12759 9.92491 7.16708C9.88417 7.20664 9.82187 7.21357 9.77294 7.18446L7.54866 5.8501C7.44381 5.78725 7.30561 5.81187 7.2408 5.90547C7.20351 5.95927 7.19163 6.02346 7.20721 6.08615C7.22152 6.14341 7.25747 6.19171 7.30836 6.22223C7.30852 6.22231 7.3086 6.22246 7.30875 6.22254L8.76307 7.09502C8.82254 7.13073 8.84181 7.20781 8.8061 7.26736C8.77039 7.32674 8.69338 7.34617 8.63376 7.31038L6.84829 6.2393C6.79764 6.20894 6.73802 6.19997 6.68075 6.21437C6.62333 6.22868 6.57504 6.26455 6.5446 6.31544C6.51408 6.36618 6.50527 6.42572 6.51943 6.48298C6.53374 6.54025 6.56969 6.58862 6.6205 6.61914L6.96794 6.82751L8.40588 7.69024C8.46535 7.72595 8.48462 7.80304 8.44891 7.86258C8.4132 7.92197 8.33619 7.94132 8.27657 7.90561L6.82195 7.03289C6.71733 6.96997 6.5811 7.0041 6.51817 7.10888C6.48765 7.15969 6.47884 7.21923 6.493 7.2765C6.50731 7.33376 6.54326 7.38206 6.59415 7.41265L6.95079 7.6266L8.04877 8.28537C8.10824 8.32108 8.12751 8.39817 8.0918 8.45771C8.05609 8.5171 7.97908 8.5366 7.91946 8.50074L6.82148 7.84197C6.77082 7.81161 6.71143 7.80264 6.65385 7.81703C6.59659 7.83135 6.54814 7.86722 6.5177 7.91795C6.48726 7.96877 6.47837 8.02839 6.49253 8.08557C6.50684 8.14284 6.54279 8.19113 6.59368 8.22173L8.81957 9.55702C9.18078 9.77373 9.59734 9.84876 9.99206 9.76821C10.3827 9.68846 10.7053 9.4653 10.9006 9.13981C11.2161 8.61421 11.1707 8.01736 10.7793 7.54329L10.7792 7.5433Z" fill="#4CAF4F"/>
<path d="M11.1161 9.2689L10.9725 8.84756L12.123 8.45534L11.4979 9.49783L11.1161 9.2689ZM10.0425 10.0142L10.1316 10.4503L10.1314 10.4504L10.0425 10.0142ZM8.69051 9.77232L8.46159 10.1541L8.46151 10.1541L8.69051 9.77232ZM6.46462 8.43702L6.69361 8.05528L6.69362 8.05529L6.46462 8.43702ZM6.24902 8.14629L5.81718 8.25438L5.81704 8.2538L6.24902 8.14629ZM6.3025 7.78871L6.68442 8.01741L6.6843 8.01761L6.3025 7.78871ZM6.46564 7.62832L6.70157 7.25083L7.3187 7.63654L6.69426 8.01029L6.46564 7.62832ZM6.46501 7.62793L6.69404 7.24613L6.70094 7.25044L6.46501 7.62793ZM6.24957 7.33736L6.68137 7.22914L6.68151 7.22968L6.24957 7.33736ZM6.3029 6.97948L5.9211 6.75059L5.92137 6.75013L6.3029 6.97948ZM6.46753 6.81681L6.71983 6.45005L7.29474 6.84554L6.69377 7.20019L6.46753 6.81681ZM6.27592 6.54386L6.70774 6.4357L6.70779 6.4359L6.27592 6.54386ZM6.32925 6.18612L6.71112 6.4149L6.71092 6.41523L6.32925 6.18612ZM6.61982 5.97067L6.72821 6.40243L6.72777 6.40254L6.61982 5.97067ZM6.73521 5.95636V5.5112L6.73568 5.5112L6.73521 5.95636ZM6.95247 6.01111L7.39712 6.03217L7.36413 6.72888L6.74611 6.40554L6.95247 6.01111ZM7.03427 5.76246L7.40014 6.01605L7.40007 6.01614L7.03427 5.76246ZM7.67794 5.63472L7.44895 6.01646L7.4489 6.01643L7.67794 5.63472ZM9.50069 6.72807L9.88989 6.51199L10.6962 7.96426L9.27171 7.10982L9.50069 6.72807ZM9.26574 6.30488L9.65448 6.08799L9.65494 6.0888L9.26574 6.30488ZM9.27447 5.78463L8.8927 5.55569L8.89282 5.55549L9.27447 5.78463ZM9.4671 5.59806L9.24935 5.20979L9.25151 5.20859L9.4671 5.59806ZM9.6731 5.54473V5.09957L9.67333 5.09957L9.6731 5.54473ZM10.0463 5.76404L9.6571 5.98006L9.65686 5.97961L10.0463 5.76404ZM10.8625 7.23354L10.4957 7.48584L10.484 7.46885L10.474 7.45085L10.8625 7.23354ZM10.9129 7.30574L10.5491 7.56225L10.5488 7.56179L10.9129 7.30574ZM10.973 7.38322L11.3157 7.09909L11.3164 7.09995L10.973 7.38322ZM11.1161 9.26891L11.2597 9.69025L10.1086 10.0827L10.7344 9.03986L11.1161 9.26891ZM10.7792 7.5433L10.8233 7.98627L10.5871 8.00978L10.436 7.8268L10.7792 7.5433ZM10.7073 7.45025L11.0712 7.19382L11.0718 7.19466L10.7073 7.45025ZM10.6325 7.32605L11.0135 7.09578L11.0535 7.16194L11.0688 7.2377L10.6325 7.32605ZM9.82651 5.88589L9.43729 6.10193L9.43722 6.10179L9.82651 5.88589ZM9.58904 5.81761L9.37167 5.42913L9.37374 5.42798L9.58904 5.81761ZM9.48961 5.91405L9.8714 6.14296L9.87136 6.14302L9.48961 5.91405ZM9.48497 6.18283L9.87365 5.96582L9.8742 5.96681L9.48497 6.18283ZM9.94733 7.0159L9.55816 7.23203L9.5581 7.23192L9.94733 7.0159ZM9.92491 7.16708L9.6148 6.84771L9.61543 6.84711L9.92491 7.16708ZM9.77294 7.18446L9.54536 7.56705L9.54394 7.56619L9.77294 7.18446ZM7.54866 5.8501L7.77753 5.46828L7.77767 5.46836L7.54866 5.8501ZM7.2408 5.90547L7.60677 6.1589L7.60668 6.15903L7.2408 5.90547ZM7.20721 6.08615L6.77534 6.19411L6.77518 6.19347L7.20721 6.08615ZM7.30836 6.22223L7.10924 6.62037L7.09402 6.61275L7.07942 6.604L7.30836 6.22223ZM7.30875 6.22254L7.50787 5.8244L7.52313 5.83204L7.53776 5.84081L7.30875 6.22254ZM8.76307 7.09502L8.99208 6.71329L8.99225 6.71339L8.76307 7.09502ZM8.8061 7.26736L9.18786 7.49632L9.1876 7.49676L8.8061 7.26736ZM8.63376 7.31038L8.86276 6.92865L8.86287 6.92872L8.63376 7.31038ZM6.84829 6.2393L7.07715 5.85748L7.07729 5.85757L6.84829 6.2393ZM6.68075 6.21437L6.78927 6.64609L6.78844 6.6463L6.68075 6.21437ZM6.5446 6.31544L6.92663 6.54395L6.92605 6.54491L6.5446 6.31544ZM6.51943 6.48298L6.08756 6.59095L6.08728 6.58983L6.51943 6.48298ZM6.6205 6.61914L6.39154 7.0009L6.3913 7.00076L6.6205 6.61914ZM6.96794 6.82751L7.19689 6.44575L7.19696 6.44579L6.96794 6.82751ZM8.40588 7.69024L8.63491 7.30852L8.63506 7.30861L8.40588 7.69024ZM8.44891 7.86258L8.83067 8.09155L8.83041 8.09198L8.44891 7.86258ZM8.27657 7.90561L8.04783 8.2875L8.04755 8.28733L8.27657 7.90561ZM6.82195 7.03289L6.59293 7.41462L6.5925 7.41436L6.82195 7.03289ZM6.51817 7.10888L6.89979 7.33808L6.89978 7.33808L6.51817 7.10888ZM6.493 7.2765L6.06113 7.38446L6.06086 7.38334L6.493 7.2765ZM6.59415 7.41265L6.36515 7.79439L6.36478 7.79416L6.59415 7.41265ZM6.95079 7.6266L7.1798 7.24487L7.17981 7.24488L6.95079 7.6266ZM8.04877 8.28537L8.2778 7.90365L8.27795 7.90374L8.04877 8.28537ZM8.0918 8.45771L8.47356 8.68667L8.4733 8.68711L8.0918 8.45771ZM7.91946 8.50074L8.14848 8.11901L8.14894 8.11929L7.91946 8.50074ZM6.82148 7.84197L7.05033 7.46015L7.0505 7.46025L6.82148 7.84197ZM6.65385 7.81703L6.54589 7.38517L6.5459 7.38517L6.65385 7.81703ZM6.5177 7.91795L6.13582 7.68918L6.13598 7.68892L6.5177 7.91795ZM6.49253 8.08557L6.06066 8.19354L6.06042 8.19256L6.49253 8.08557ZM6.59368 8.22173L6.36468 8.60347L6.3643 8.60324L6.59368 8.22173ZM8.81957 9.55702L9.04857 9.17529L9.04859 9.1753L8.81957 9.55702ZM9.99206 9.76821L10.0811 10.2044L10.0811 10.2044L9.99206 9.76821ZM10.9006 9.13981L10.5188 8.91084L10.5189 8.91071L10.9006 9.13981ZM10.7793 7.54329L10.7352 7.10033L10.9715 7.0768L11.1227 7.25991L10.7793 7.54329ZM11.4979 9.49783C11.1988 9.99659 10.7085 10.3325 10.1316 10.4503L9.9534 9.57805C10.2976 9.50774 10.5698 9.31442 10.7343 9.03998L11.4979 9.49783ZM10.1314 10.4504C9.56131 10.5666 8.96836 10.458 8.46159 10.1541L8.91943 9.39053C9.24361 9.58491 9.61077 9.6479 9.95357 9.57801L10.1314 10.4504ZM8.46151 10.1541L6.23562 8.81876L6.69362 8.05529L8.91951 9.39058L8.46151 10.1541ZM6.23563 8.81876C6.02629 8.69319 5.87657 8.49167 5.81718 8.25438L6.68085 8.03821C6.68206 8.04304 6.68374 8.04603 6.68523 8.04804C6.68673 8.05006 6.68918 8.05262 6.69361 8.05528L6.23563 8.81876ZM5.81704 8.2538C5.75807 8.01684 5.79537 7.76886 5.92071 7.5598L6.6843 8.01761C6.68163 8.02206 6.68065 8.02554 6.68026 8.0281C6.67988 8.03066 6.67983 8.03409 6.681 8.03879L5.81704 8.2538ZM5.92059 7.56001C6.00313 7.42217 6.11592 7.31885 6.23702 7.24636L6.69426 8.01029C6.68884 8.01353 6.68596 8.01605 6.6848 8.01718C6.68376 8.01819 6.68391 8.01825 6.68442 8.01741L5.92059 7.56001ZM6.22971 8.00582L6.22908 8.00542L6.70094 7.25044L6.70157 7.25083L6.22971 8.00582ZM6.23602 8.00967C6.02678 7.88416 5.87686 7.68258 5.81764 7.44505L6.68151 7.22968C6.68263 7.2342 6.68421 7.23704 6.68566 7.23899C6.68712 7.24096 6.68956 7.24352 6.694 7.24619L6.23602 8.00967ZM5.81777 7.44559C5.75825 7.2081 5.79569 6.95977 5.9211 6.75059L6.6847 7.20837C6.68198 7.21291 6.68102 7.21639 6.68065 7.21885C6.68029 7.2213 6.68023 7.22458 6.68137 7.22914L5.81777 7.44559ZM5.92137 6.75013C6.00356 6.61341 6.11585 6.50746 6.24129 6.43343L6.69377 7.20019C6.69088 7.20189 6.68892 7.2035 6.68762 7.20477C6.6864 7.20597 6.68539 7.20723 6.68443 7.20882L5.92137 6.75013ZM6.21524 7.18357C6.03543 7.05987 5.89986 6.87504 5.84406 6.65182L6.70779 6.4359C6.70831 6.438 6.70902 6.43949 6.71017 6.44112C6.71142 6.44289 6.71421 6.44619 6.71983 6.45005L6.21524 7.18357ZM5.84411 6.65202C5.78463 6.41457 5.82199 6.16623 5.94758 5.95701L6.71092 6.41523C6.70828 6.41963 6.70735 6.42298 6.707 6.42537C6.70664 6.42774 6.70657 6.43104 6.70774 6.4357L5.84411 6.65202ZM5.94739 5.95733C6.07303 5.74763 6.27486 5.59805 6.51188 5.53881L6.72777 6.40254C6.72302 6.40373 6.72006 6.40539 6.71808 6.40686C6.71611 6.40832 6.71365 6.41068 6.71112 6.4149L5.94739 5.95733ZM6.51144 5.53892C6.58518 5.5204 6.66036 5.5112 6.73521 5.5112V6.40151C6.73329 6.40151 6.73092 6.40175 6.72821 6.40243L6.51144 5.53892ZM6.73568 5.5112C6.8869 5.51136 7.0311 5.54985 7.15883 5.61667L6.74611 6.40554C6.74187 6.40333 6.73885 6.40235 6.73717 6.40192C6.73554 6.40151 6.7348 6.40151 6.73475 6.40151L6.73568 5.5112ZM6.50781 5.99005C6.51548 5.82815 6.56429 5.65901 6.66847 5.50878L7.40007 6.01614C7.40137 6.01427 7.39779 6.01802 7.39712 6.03217L6.50781 5.99005ZM6.66841 5.50887C6.95036 5.10207 7.49701 5.00702 7.90697 5.253L7.4489 6.01643C7.43593 6.00865 7.4232 6.0074 7.41323 6.00938C7.40348 6.01132 7.4008 6.01509 7.40014 6.01605L6.66841 5.50887ZM7.90692 5.25297L9.72968 6.34633L9.27171 7.10982L7.44895 6.01646L7.90692 5.25297ZM9.1115 6.94415L8.87654 6.52096L9.65494 6.0888L9.88989 6.51199L9.1115 6.94415ZM8.877 6.52178C8.70886 6.22041 8.71556 5.85106 8.8927 5.55569L9.65624 6.01358C9.64224 6.03693 9.64234 6.06622 9.65448 6.08799L8.877 6.52178ZM8.89282 5.55549C8.97964 5.41089 9.10295 5.2919 9.24936 5.20979L9.68485 5.98632C9.67221 5.99341 9.66244 6.00326 9.65612 6.01378L8.89282 5.55549ZM9.25151 5.20859C9.38471 5.13486 9.52998 5.09957 9.6731 5.09957V5.98988C9.67655 5.98988 9.68023 5.98889 9.6827 5.98752L9.25151 5.20859ZM9.67333 5.09957C9.97754 5.09973 10.2763 5.26022 10.4358 5.54846L9.65686 5.97961C9.65862 5.9828 9.66177 5.98593 9.66495 5.98776C9.66748 5.98921 9.66999 5.98988 9.67287 5.98988L9.67333 5.09957ZM10.4356 5.54802C10.7062 6.03558 11.2156 6.95296 11.251 7.01622L10.474 7.45085C10.4376 7.38589 9.92705 6.46646 9.6571 5.98005L10.4356 5.54802ZM11.2292 6.98123C11.2355 6.99037 11.2575 7.02189 11.2771 7.0497L10.5488 7.56179C10.5288 7.53344 10.5047 7.49888 10.4957 7.48584L11.2292 6.98123ZM11.2767 7.04924C11.2859 7.06229 11.2979 7.0777 11.3157 7.09909L10.6303 7.66736C10.606 7.63809 10.5775 7.60252 10.5491 7.56225L11.2767 7.04924ZM11.3164 7.09995C11.891 7.79646 11.9621 8.7241 11.4978 9.49795L10.7344 9.03986C11.0039 8.5907 10.9653 8.07339 10.6296 7.6665L11.3164 7.09995ZM10.9724 8.84756L10.9725 8.84756L11.2597 9.69025L11.2597 9.69025L10.9724 8.84756ZM10.436 7.8268C10.4079 7.79273 10.3749 7.75157 10.3428 7.70584L11.0718 7.19466C11.0844 7.21265 11.1005 7.23331 11.1224 7.25981L10.436 7.8268ZM10.3434 7.70668C10.3154 7.66692 10.2853 7.62471 10.2653 7.5916C10.2519 7.56946 10.234 7.53713 10.2189 7.49595C10.2042 7.45584 10.1976 7.42149 10.1962 7.4144L11.0688 7.2377C11.0699 7.24324 11.0655 7.21866 11.0547 7.18915C11.0435 7.15855 11.0312 7.13761 11.0274 7.13131C11.0256 7.12831 11.0249 7.12734 11.0263 7.12946C11.0276 7.13147 11.03 7.13498 11.034 7.14078C11.0423 7.15281 11.0537 7.16901 11.0712 7.19382L10.3434 7.70668ZM10.2515 7.55632C10.1665 7.41561 9.96632 7.05502 9.43729 6.10193L10.2157 5.66985C10.7522 6.63637 10.9396 6.97361 11.0135 7.09578L10.2515 7.55632ZM9.43722 6.10179C9.5093 6.23176 9.67339 6.2796 9.80433 6.20724L9.37374 5.42798C9.6738 5.26218 10.0503 5.37153 10.2158 5.66998L9.43722 6.10179ZM9.8064 6.20609C9.83257 6.19145 9.85583 6.16893 9.8714 6.14296L9.10782 5.68514C9.17216 5.57783 9.26229 5.49034 9.37167 5.42913L9.8064 6.20609ZM9.87136 6.14302C9.90324 6.08988 9.90539 6.02267 9.87365 5.96582L9.0963 6.39984C8.97126 6.1759 8.97719 5.90292 9.10786 5.68507L9.87136 6.14302ZM9.8742 5.96681L10.3366 6.79988L9.5581 7.23192L9.09575 6.39885L9.8742 5.96681ZM10.3365 6.79977C10.4618 7.02543 10.4202 7.30734 10.2344 7.48705L9.61543 6.84711C9.51127 6.94784 9.48805 7.10579 9.55816 7.23203L10.3365 6.79977ZM10.235 7.48644C10.0477 7.66829 9.76458 7.69745 9.54536 7.56705L10.0005 6.80188C9.87916 6.72968 9.72058 6.74499 9.6148 6.84772L10.235 7.48644ZM9.54394 7.56619L7.31966 6.23183L7.77767 5.46836L10.0019 6.80273L9.54394 7.56619ZM7.3198 6.23191C7.36322 6.25794 7.41228 6.26553 7.4583 6.25728C7.50431 6.24903 7.56367 6.22114 7.60677 6.1589L6.87482 5.65204C7.0891 5.34261 7.49648 5.29982 7.77753 5.46828L7.3198 6.23191ZM7.60668 6.15903C7.64143 6.10888 7.65488 6.04181 7.63923 5.97883L6.77518 6.19347C6.72839 6.00511 6.76559 5.80966 6.87491 5.65192L7.60668 6.15903ZM7.63907 5.97819C7.6245 5.91988 7.58681 5.87015 7.53731 5.84046L7.07942 6.604C6.92813 6.51327 6.81855 6.36695 6.77534 6.19411L7.63907 5.97819ZM7.50748 5.82409C7.54769 5.8442 7.57728 5.86663 7.59601 5.88247C7.60522 5.89026 7.61235 5.89694 7.61665 5.90107C7.61884 5.90317 7.62059 5.90489 7.62165 5.90594C7.62219 5.90648 7.62263 5.90691 7.62289 5.90718C7.62303 5.90731 7.62314 5.90742 7.62321 5.90749C7.62324 5.90752 7.62327 5.90755 7.62329 5.90757C7.62329 5.90758 7.6233 5.90758 7.62331 5.90759C7.62331 5.90759 7.62331 5.90759 7.62331 5.90759C7.62331 5.9076 7.62331 5.9076 7.62331 5.9076C7.62387 5.90816 7.62062 5.90488 7.61674 5.90116C7.61247 5.89706 7.60537 5.89041 7.59619 5.88264C7.57753 5.86685 7.54801 5.84448 7.50787 5.8244L7.10963 6.62068C7.06942 6.60057 7.03983 6.57814 7.02111 6.5623C7.0119 6.55451 7.00477 6.54783 7.00047 6.5437C6.99828 6.5416 6.99653 6.53988 6.99547 6.53883C6.99493 6.5383 6.99449 6.53786 6.99422 6.5376C6.99409 6.53746 6.99398 6.53735 6.99391 6.53728C6.99388 6.53725 6.99385 6.53722 6.99383 6.5372C6.99382 6.53719 6.99381 6.53719 6.99381 6.53718C6.99381 6.53718 6.99381 6.53718 6.9938 6.53718C6.9938 6.53718 6.9938 6.53718 6.9938 6.53717C6.99324 6.53661 6.99649 6.53989 7.00038 6.54362C7.00465 6.54771 7.01175 6.55436 7.02093 6.56213C7.03959 6.57792 7.06911 6.60029 7.10924 6.62037L7.50748 5.82409ZM7.53776 5.84081L8.99208 6.71329L8.53407 7.47675L7.07975 6.60427L7.53776 5.84081ZM8.99225 6.71339C9.26248 6.87567 9.34992 7.2261 9.18786 7.49632L8.42434 7.03839C8.3337 7.18953 8.3826 7.38579 8.5339 7.47665L8.99225 6.71339ZM9.1876 7.49676C9.02571 7.76598 8.67569 7.85476 8.40465 7.69205L8.86287 6.92872C8.71107 6.83759 8.51507 6.88751 8.4246 7.03796L9.1876 7.49676ZM8.40476 7.69212L6.6193 6.62104L7.07729 5.85757L8.86276 6.92865L8.40476 7.69212ZM6.61944 6.62112C6.66944 6.6511 6.73111 6.66071 6.78927 6.64609L6.57223 5.78264C6.74492 5.73923 6.92583 5.76678 7.07715 5.85748L6.61944 6.62112ZM6.78844 6.6463C6.84625 6.63189 6.8965 6.59432 6.92663 6.54395L6.16257 6.08693C6.25357 5.93479 6.40041 5.82548 6.57307 5.78243L6.78844 6.6463ZM6.92605 6.54491C6.95662 6.49409 6.96553 6.43261 6.95157 6.37614L6.08728 6.58983C6.045 6.41883 6.07153 6.23827 6.16314 6.08598L6.92605 6.54491ZM6.95129 6.37502C6.93679 6.31703 6.89935 6.26734 6.8497 6.23753L6.3913 7.00076C6.24003 6.9099 6.13069 6.76347 6.08756 6.59095L6.95129 6.37502ZM6.84946 6.23738L7.19689 6.44575L6.73898 7.20928L6.39154 7.0009L6.84946 6.23738ZM7.19696 6.44579L8.63491 7.30852L8.17686 8.07197L6.73891 7.20924L7.19696 6.44579ZM8.63506 7.30861C8.90529 7.47089 8.99273 7.82133 8.83067 8.09155L8.06715 7.63362C7.97651 7.78475 8.02541 7.98101 8.17671 8.07187L8.63506 7.30861ZM8.83041 8.09198C8.66827 8.36162 8.31829 8.4495 8.04783 8.2875L8.50531 7.52372C8.35409 7.43314 8.15813 7.48232 8.06741 7.63318L8.83041 8.09198ZM8.04755 8.28733L6.59293 7.41462L7.05097 6.65117L8.50559 7.52389L8.04755 8.28733ZM6.5925 7.41436C6.69939 7.47866 6.83651 7.44343 6.89979 7.33808L6.13655 6.87968C6.32568 6.56478 6.73527 6.46128 7.0514 6.65143L6.5925 7.41436ZM6.89978 7.33808C6.93013 7.28755 6.93912 7.2262 6.92514 7.16965L6.06086 7.38334C6.01856 7.21226 6.04517 7.03183 6.13656 6.87967L6.89978 7.33808ZM6.92486 7.16853C6.91027 7.11017 6.87262 7.06066 6.82353 7.03114L6.36478 7.79416C6.21391 7.70346 6.10436 7.55735 6.06113 7.38446L6.92486 7.16853ZM6.82316 7.03092L7.1798 7.24487L6.72179 8.00834L6.36515 7.79439L6.82316 7.03092ZM7.17981 7.24488L8.2778 7.90365L7.81975 8.66709L6.72177 8.00833L7.17981 7.24488ZM8.27795 7.90374C8.54818 8.06602 8.63562 8.41646 8.47356 8.68667L7.71004 8.22875C7.6194 8.37988 7.6683 8.57614 7.8196 8.667L8.27795 7.90374ZM8.4733 8.68711C8.31166 8.95591 7.96161 9.0456 7.68998 8.88218L8.14894 8.11929C7.99656 8.02761 7.80052 8.07828 7.7103 8.22831L8.4733 8.68711ZM7.69043 8.88246L6.59245 8.22369L7.0505 7.46025L8.14848 8.11901L7.69043 8.88246ZM6.59262 8.22379C6.64275 8.25384 6.70446 8.26324 6.76181 8.2489L6.5459 7.38517C6.71841 7.34204 6.89889 7.36937 7.05033 7.46015L6.59262 8.22379ZM6.76182 8.2489C6.8191 8.23458 6.86912 8.19748 6.89942 8.14698L6.13598 7.68892C6.22716 7.53696 6.37408 7.42812 6.54589 7.38517L6.76182 8.2489ZM6.89957 8.14672C6.92949 8.09679 6.93878 8.03572 6.92464 7.97859L6.06042 8.19256C6.01796 8.02106 6.04503 7.84074 6.13582 7.68918L6.89957 8.14672ZM6.92439 7.97761C6.9098 7.91925 6.87214 7.86973 6.82306 7.84022L6.3643 8.60324C6.21344 8.51253 6.10388 8.36643 6.06066 8.19354L6.92439 7.97761ZM6.82268 7.83999L9.04857 9.17529L8.59057 9.93876L6.36468 8.60347L6.82268 7.83999ZM9.04859 9.1753C9.31911 9.3376 9.62277 9.38924 9.90305 9.33205L10.0811 10.2044C9.57192 10.3083 9.04245 10.2099 8.59055 9.93875L9.04859 9.1753ZM9.903 9.33206C10.1783 9.27584 10.3914 9.12332 10.5188 8.91084L11.2823 9.36879C11.0193 9.80728 10.587 10.1011 10.0811 10.2044L9.903 9.33206ZM10.5189 8.91071C10.7369 8.54749 10.7078 8.1559 10.436 7.82667L11.1227 7.25991C11.6335 7.87883 11.6952 8.68093 11.2822 9.36892L10.5189 8.91071ZM10.8234 7.98626L10.8233 7.98627L10.7351 7.10034L10.7352 7.10033L10.8234 7.98626Z" fill="#4CAF4F" mask="url(#path-4-inside-2_212_1414)"/>
</svg>
