<svg width="15" height="12" viewBox="0 0 15 12" fill="none" xmlns="http://www.w3.org/2000/svg">
<path d="M3.14453 1.05579H12.6592C13.2126 1.05579 13.7434 1.27579 14.1348 1.66711C14.5261 2.05844 14.7461 2.5893 14.7461 3.1427V9.65247C14.7461 10.2059 14.5261 10.7367 14.1348 11.1281C13.7434 11.5194 13.2126 11.7394 12.6592 11.7394H3.14453C2.59111 11.7394 2.06027 11.5194 1.66895 11.1281C1.27763 10.7367 1.05762 10.2059 1.05762 9.65247V3.1427C1.05762 2.58928 1.27762 2.05844 1.66895 1.66711C2.06027 1.27579 2.59111 1.05579 3.14453 1.05579ZM1.72559 9.65247C1.72559 10.0288 1.87453 10.3903 2.14062 10.6564C2.40673 10.9225 2.76821 11.0714 3.14453 11.0714H12.6592C13.0355 11.0714 13.397 10.9225 13.6631 10.6564C13.9292 10.3903 14.0781 10.0288 14.0781 9.65247V4.72864H1.72559V9.65247ZM10.4062 8.06653H11.9082C11.9968 8.06653 12.0819 8.10255 12.1445 8.16516C12.2069 8.22767 12.2421 8.31223 12.2422 8.40051C12.2422 8.489 12.2071 8.57424 12.1445 8.63684C12.0819 8.69945 11.9968 8.7345 11.9082 8.7345H10.4062C10.3177 8.7345 10.2325 8.69941 10.1699 8.63684C10.1073 8.57423 10.0723 8.48906 10.0723 8.40051C10.0723 8.31213 10.1075 8.22769 10.1699 8.16516C10.2325 8.10255 10.3177 8.06653 10.4062 8.06653ZM3.14453 1.72375C2.76821 1.72375 2.40673 1.87269 2.14062 2.13879C1.87452 2.4049 1.72559 2.76638 1.72559 3.1427V4.06067H14.0781V3.1427C14.0781 2.76639 13.9292 2.40489 13.6631 2.13879C13.397 1.87269 13.0355 1.72375 12.6592 1.72375H3.14453Z" fill="#4CAF4F" stroke="#4CAF4F" stroke-width="0.333867"/>
</svg>
