<svg width="17" height="12" viewBox="0 0 17 12" fill="none" xmlns="http://www.w3.org/2000/svg">
<path d="M11.347 0.951782H11.348C12.136 0.949494 12.9058 1.18955 13.5521 1.64026C14.1984 2.09097 14.6902 2.7302 14.9603 3.47034C15.2305 4.21059 15.266 5.01685 15.0619 5.77795C14.8578 6.53892 14.4239 7.21854 13.8197 7.72424L13.6156 7.89514L13.8578 8.00452C14.8504 8.45369 15.7045 9.16037 16.3314 10.0514L16.3324 10.0524C16.3769 10.1147 16.4091 10.1857 16.4261 10.2604C16.4431 10.335 16.4451 10.4125 16.432 10.4879C16.4189 10.5632 16.3911 10.6354 16.35 10.6998C16.3088 10.7644 16.2547 10.8202 16.1918 10.8639L16.1898 10.8649C16.0924 10.9345 15.9755 10.9716 15.8558 10.9713L15.7855 10.9674C15.7162 10.9587 15.6486 10.9373 15.5863 10.9049C15.5035 10.8618 15.4324 10.7994 15.3783 10.7233C14.9231 10.0774 14.3188 9.55032 13.6176 9.18616C13.0041 8.8676 12.3317 8.68135 11.6439 8.63928L11.348 8.63049L11.2328 8.61877C11.1208 8.5963 11.017 8.54149 10.9349 8.45959C10.8254 8.35009 10.7631 8.20136 10.7631 8.04651C10.7631 7.89155 10.8254 7.74299 10.9349 7.63342C11.0445 7.52387 11.1931 7.46155 11.348 7.46155C12.0563 7.46146 12.7359 7.18014 13.2367 6.67932C13.7374 6.17846 14.0189 5.49886 14.0189 4.79065C14.0188 4.0824 13.7375 3.40279 13.2367 2.90198C12.7359 2.40117 12.0563 2.11984 11.348 2.11975C11.1038 2.11929 10.8602 2.15334 10.6254 2.22034L10.6234 2.22131C10.5494 2.24332 10.4717 2.25002 10.3949 2.24182C10.3178 2.23357 10.2431 2.20986 10.1752 2.17249C10.1073 2.13511 10.0475 2.08472 9.99939 2.02405C9.95124 1.96337 9.91588 1.89354 9.8949 1.81897C9.87395 1.74443 9.86787 1.66632 9.87732 1.58948C9.88679 1.51279 9.9113 1.43883 9.94958 1.3717C9.98802 1.30441 10.0395 1.2451 10.101 1.19788C10.1623 1.15075 10.2323 1.11615 10.307 1.09631L10.3099 1.09534C10.6471 0.999348 10.9965 0.951232 11.347 0.951782ZM6.24548 0.946899C7.03286 0.946899 7.80149 1.18892 8.44666 1.64026C9.0919 2.09176 9.58309 2.73145 9.85291 3.47131C10.1226 4.21106 10.1585 5.01624 9.95544 5.77698C9.75229 6.5377 9.3197 7.21736 8.71716 7.72424L8.51501 7.89514L8.75623 8.00452C9.62481 8.39763 10.3877 8.9877 10.9847 9.7262L11.2299 10.0514L11.2347 10.0582C11.2834 10.1206 11.3191 10.1926 11.3392 10.2692C11.3593 10.3456 11.3635 10.4254 11.3519 10.5035C11.3403 10.5818 11.3133 10.6569 11.2719 10.7242C11.2304 10.7916 11.1754 10.8496 11.1107 10.8951C11.046 10.9407 10.9723 10.9725 10.8949 10.9889C10.8176 11.0052 10.738 11.0062 10.6605 10.9908C10.5829 10.9754 10.509 10.9438 10.4437 10.899C10.4112 10.8767 10.3811 10.8512 10.3539 10.8229L10.2806 10.7301L10.2758 10.7233C9.82148 10.0764 9.21837 9.54779 8.51697 9.18323C7.81548 8.81865 7.03606 8.62854 6.24548 8.62854C5.45513 8.62859 4.6763 8.81879 3.97498 9.18323C3.27347 9.54784 2.66951 10.0762 2.21521 10.7233V10.7242C2.16181 10.8009 2.09007 10.8637 2.0072 10.9069C1.92441 10.9499 1.83194 10.9716 1.73865 10.9713H1.73767C1.61794 10.9716 1.5011 10.9345 1.40369 10.8649H1.40271C1.27632 10.7756 1.1909 10.6394 1.16443 10.4869C1.13803 10.3346 1.17321 10.1779 1.26208 10.0514C1.88901 9.16039 2.74315 8.45369 3.73572 8.00452L3.97693 7.89514L3.7738 7.72424C3.17143 7.21741 2.73963 6.53755 2.5365 5.77698C2.33342 5.01619 2.36932 4.21109 2.63904 3.47131C2.90885 2.73147 3.39909 2.09176 4.04431 1.64026C4.68947 1.18881 5.45806 0.94696 6.24548 0.946899ZM6.76697 2.17151C6.2489 2.06846 5.71201 2.12174 5.224 2.32385C4.73595 2.52601 4.31827 2.86802 4.02478 3.30725C3.73144 3.74634 3.57466 4.26259 3.57458 4.79065C3.57458 5.49887 3.85612 6.17846 4.35681 6.67932C4.85764 7.18015 5.53721 7.46147 6.24548 7.46155C6.77374 7.46155 7.29063 7.30484 7.72986 7.01135C8.16892 6.71789 8.51115 6.30102 8.71326 5.81311C8.91538 5.32514 8.96859 4.78818 8.8656 4.27014C8.76254 3.75203 8.50769 3.27551 8.13416 2.90198C7.7607 2.52865 7.28487 2.27455 6.76697 2.17151Z" fill="#4CAF4F" stroke="#4CAF4F" stroke-width="0.333867"/>
</svg>
